<?xml version="1.0" encoding="UTF-8"?>
<!DOCTYPE svg PUBLIC "-//W3C//DTD SVG 1.1//EN" "http://www.w3.org/Graphics/SVG/1.1/DTD/svg11.dtd">
<!-- Creator: CorelDRAW 2021.5 -->
<svg xmlns="http://www.w3.org/2000/svg" xml:space="preserve" width="8.45in" height="2.06in" version="1.1" style="shape-rendering:geometricPrecision; text-rendering:geometricPrecision; image-rendering:optimizeQuality; fill-rule:evenodd; clip-rule:evenodd"
viewBox="0 0 8450 2060"
 xmlns:xlink="http://www.w3.org/1999/xlink"
 xmlns:xodm="http://www.corel.com/coreldraw/odm/2003">
 <defs>
  <style type="text/css">
   <![CDATA[
    .fil1 {fill:#332C2B}
    .fil0 {fill:#332C2B;fill-rule:nonzero}
   ]]>
  </style>
 </defs>
 <g id="Layer_x0020_1">
  <metadata id="CorelCorpID_0Corel-Layer"/>
  <g id="_2376281004512">
   <polygon class="fil0" points="355.31,683.17 0.87,2043.79 151.79,2043.79 460.5,793.7 465.08,793.7 728.04,2043.79 883.56,2043.79 1786.8,812.77 1791.38,812.77 1455.23,2043.79 1608.45,2043.79 1958.33,683.17 1731.93,683.17 835.54,1904.69 581.7,683.17 "/>
   <polygon class="fil0" points="2105.14,1060.49 1851.3,2043.79 1995.37,2043.79 2249.19,1060.49 "/>
   <polygon class="fil0" points="2456.23,1060.3 2205.34,2043.79 2349.41,2043.79 2440.88,1687.43 2692.41,1512.12 3005.7,2043.79 3163.49,2043.79 2806.76,1439.7 3364.73,1060.49 3172.65,1060.49 2482.04,1540.71 2477.46,1536.89 2600.55,1060.3 "/>
   <path class="fil1" d="M3449.64 1060.49l-253.81 983.3 144.07 0 132.63 -514.52c48.01,-184.85 185.22,-358.25 443.62,-362.06 27.44,0 54.89,1.9 82.33,1.9l32.01 -120.06c-25.17,-1.91 -52.59,-1.91 -77.75,-1.91 -210.39,-1.91 -336.15,99.09 -427.62,240.13l-4.59 0 59.46 -226.78 -130.35 0z"/>
   <path class="fil1" d="M5030.03 1416.84c0,-242.01 -192.1,-384.94 -466.5,-384.94 -420.77,0 -658.58,308.72 -658.58,630.76 0,245.82 166.93,409.7 471.06,409.7 436.78,0 654.02,-323.96 654.02,-655.53zm-144.07 24.77l0 0c0,228.68 -166.94,529.75 -482.5,529.75 -240.1,0 -354.44,-129.57 -354.44,-320.13 0,-230.57 173.8,-518.33 489.37,-518.33 230.96,0 347.58,125.78 347.58,308.71z"/>
   <polygon class="fil1" points="6412.46,1059.8 6506.1,682.96 5097.48,682.96 5004.39,1060.3 5456.28,1060.3 5456.25,1060.41 5960.04,1060.41 5960.08,1060.3 "/>
   <polygon class="fil1" points="5411.46,1240.57 5211.8,2043.55 5714.91,2043.55 5915.06,1240.86 5915.14,1240.52 5411.48,1240.52 "/>
   <path class="fil1" d="M6493.28 1240.65l-198.84 802.92 452.77 0 198.84 -802.92 -452.77 0zm498.28 -180.85l0 0 94.09 -376.84 -452.78 0 -94.74 377.35 453.42 -0.5z"/>
   <polygon class="fil1" points="7273.09,682.96 6934.65,2043.56 7387.42,2043.56 7458.31,1761.53 7561.23,1685.31 7721.3,2043.56 8212.94,2043.56 7911.09,1452.82 8443.9,1054.55 7901.94,1054.55 7568.08,1344.19 7563.51,1344.19 7725.87,682.96 "/>
   <path class="fil1" d="M2299.72 21.22c55.33,384.15 261.56,617.4 681.75,636.68 -395.91,151.36 -804.08,-204.7 -681.75,-636.68z"/>
   <path class="fil1" d="M2079.99 88.83c4.79,-1.02 5.31,2.2 5.62,5.64 13.44,245.02 116.78,430.73 253.56,557.8 135.08,125.5 320.7,229.88 580.31,225.36 -485.53,193.39 -995.61,-271.23 -839.5,-788.8z"/>
  </g>
 </g>
</svg>
